<svg xmlns="http://www.w3.org/2000/svg" viewBox="0 0 3113.53 1008.18"><defs><style>.cls-1{font-size:450px;font-family:Muli-Bold, Muli;font-weight:700;}.cls-1,.cls-6{fill:#40a9ff;}.cls-2{letter-spacing:-0.01em;}.cls-3{letter-spacing:0em;}.cls-4{letter-spacing:0em;}.cls-5{fill:#81d8d0;}</style></defs><title>资源 7svg</title><g id="图层_2" data-name="图层 2"><g id="图层_5" data-name="图层 5"><text class="cls-1" transform="translate(986.85 630)">S<tspan class="cls-2" x="289.8" y="0">K</tspan><tspan x="585.89" y="0">Y</tspan><tspan class="cls-3" x="868.94" y="0">P</tspan><tspan class="cls-4" x="1167.29" y="0">OOL</tspan></text></g><g id="图层_4" data-name="图层 4"><path class="cls-5" d="M412.54,1008.18c380.38-286.84,486.66-674.69,360-855C699,48.41,539.38,3.3,421.54.18c-127.41-3.37-293.36,40.05-369,144C-76.19,321.1,27.11,713.93,412.54,1008.18Z"/><path class="cls-6" d="M409.27,171C219.09,314.42,166,508.35,229.27,598.5c36.8,52.39,116.58,74.94,175.5,76.5,63.71,1.68,146.68-20,184.5-72C653.64,514.54,602,318.13,409.27,171Z"/></g></g></svg>